# xmcd
# 
# Track frame offsets:
#     150
#     10210
#     25710
#     38622
#     49400
#     65397
#     75412
#     88457
#     109800
#     127692
#     135962
#     151087
# 
# Disc length: 2228
# 
# Revision: 0
# Processed by: cddbd v1.5.2PL0 Copyright (c) Steve Scherf et al.
# Submitted via: fre:ac v1.0.27
# 
DISCID=8608b20c
DTITLE=珊瑚物語--ガールズカレンダー- - 小林深雪
DYEAR=95
DGENRE=Anime
TTITLE0=JANUARY　楽園のお正月
TTITLE1=FEBRUARY　渚のバレンタイン
TTITLE2=MARCH　潮風に舞う桜
TTITLE3=APRIL　ハイスクール　マーメード
TTITLE4=MAY　裸足で散歩
TTITLE5=JUNE　ドルフィン　ジューンブライド
TTITLE6=JULY　星屑の砂
TTITLE7=AUGUST　毎日が夏休みだったら
TTITLE8=SEPTEMBER　サーファー　ムーン
TTITLE9=OCTOBER　枯れ葉のさざ波
TTITLE10=NOVEMBER　海に降る雪
TTITLE11=DECEMBER　サンゴ礁のクリスマス
EXTD=
EXTT0=
EXTT1=
EXTT2=
EXTT3=
EXTT4=
EXTT5=
EXTT6=
EXTT7=
EXTT8=
EXTT9=
EXTT10=
EXTT11=
PLAYORDER=
